<svg width="291" height="122" viewBox="0 0 291 122" fill="none" xmlns="http://www.w3.org/2000/svg">
<g clip-path="url(#clip0_73_5575)">
<path d="M4.83823 78.5V20.3182H18.9007V43.6705H41.8268V20.3182H55.8609V78.5H41.8268V55.1193H18.9007V78.5H4.83823ZM76.9831 79.2386C74.199 79.2386 71.7274 78.7746 69.5683 77.8466C67.4282 76.8996 65.7331 75.4792 64.4831 73.5852C63.252 71.6723 62.6365 69.2765 62.6365 66.3977C62.6365 63.9735 63.0626 61.928 63.9149 60.2614C64.7672 58.5947 65.9414 57.2405 67.4376 56.1989C68.9339 55.1572 70.6573 54.3712 72.6081 53.8409C74.5589 53.2917 76.6422 52.9223 78.8581 52.733C81.3392 52.5057 83.3373 52.2689 84.8524 52.0227C86.3676 51.7576 87.4661 51.3883 88.1479 50.9148C88.8486 50.4223 89.199 49.7311 89.199 48.8409V48.6989C89.199 47.2405 88.6971 46.1136 87.6933 45.3182C86.6895 44.5227 85.3354 44.125 83.6308 44.125C81.7937 44.125 80.3164 44.5227 79.199 45.3182C78.0816 46.1136 77.3714 47.2121 77.0683 48.6136L64.2558 48.1591C64.6346 45.5076 65.61 43.1402 67.182 41.0568C68.7729 38.9545 70.9509 37.3068 73.716 36.1136C76.5001 34.9015 79.8429 34.2955 83.7445 34.2955C86.5286 34.2955 89.0948 34.6269 91.4433 35.2898C93.7918 35.9337 95.8373 36.8807 97.5797 38.1307C99.3221 39.3617 100.667 40.8769 101.614 42.6761C102.58 44.4754 103.063 46.5303 103.063 48.8409V78.5H89.9945V72.4205H89.6536C88.877 73.8977 87.8827 75.1477 86.6706 76.1705C85.4774 77.1932 84.0664 77.9602 82.4376 78.4716C80.8278 78.983 79.0096 79.2386 76.9831 79.2386ZM81.2729 70.1477C82.7691 70.1477 84.1138 69.8447 85.307 69.2386C86.5191 68.6326 87.485 67.7992 88.2047 66.7386C88.9244 65.6591 89.2842 64.4091 89.2842 62.9886V58.8409C88.8865 59.0492 88.4036 59.2386 87.8354 59.4091C87.2861 59.5795 86.6801 59.7405 86.0172 59.892C85.3543 60.0436 84.6725 60.1761 83.9717 60.2898C83.271 60.4034 82.5986 60.5076 81.9547 60.6023C80.6479 60.8106 79.5304 61.1326 78.6024 61.5682C77.6933 62.0038 76.9926 62.572 76.5001 63.2727C76.0267 63.9545 75.7899 64.7689 75.7899 65.7159C75.7899 67.1553 76.3013 68.2538 77.324 69.0114C78.3657 69.7689 79.682 70.1477 81.2729 70.1477ZM111.557 78.5V20.3182H135.819C140.175 20.3182 143.82 20.9337 146.756 22.1648C149.711 23.3958 151.926 25.1193 153.404 27.3352C154.9 29.5511 155.648 32.1174 155.648 35.0341C155.648 37.25 155.184 39.2292 154.256 40.9716C153.328 42.6951 152.05 44.125 150.421 45.2614C148.792 46.3977 146.908 47.1932 144.767 47.6477V48.2159C147.116 48.3295 149.284 48.964 151.273 50.1193C153.281 51.2746 154.89 52.8845 156.103 54.9489C157.315 56.9943 157.921 59.4186 157.921 62.2216C157.921 65.3466 157.125 68.1402 155.534 70.6023C153.944 73.0455 151.642 74.9773 148.631 76.3977C145.62 77.7992 141.964 78.5 137.665 78.5H111.557ZM125.62 67.1648H134.313C137.362 67.1648 139.606 66.5871 141.046 65.4318C142.504 64.2765 143.233 62.6667 143.233 60.6023C143.233 59.1061 142.883 57.8182 142.182 56.7386C141.481 55.6402 140.487 54.7973 139.199 54.2102C137.911 53.6042 136.368 53.3011 134.569 53.3011H125.62V67.1648ZM125.62 44.2386H133.404C134.938 44.2386 136.301 43.983 137.495 43.4716C138.688 42.9602 139.616 42.2216 140.279 41.2557C140.961 40.2898 141.301 39.125 141.301 37.7614C141.301 35.8106 140.61 34.2765 139.228 33.1591C137.845 32.0417 135.98 31.483 133.631 31.483H125.62V44.2386ZM178.574 20.3182V78.5H164.682V20.3182H178.574ZM199.718 79.2386C196.934 79.2386 194.462 78.7746 192.303 77.8466C190.163 76.8996 188.468 75.4792 187.218 73.5852C185.987 71.6723 185.371 69.2765 185.371 66.3977C185.371 63.9735 185.797 61.928 186.649 60.2614C187.502 58.5947 188.676 57.2405 190.172 56.1989C191.668 55.1572 193.392 54.3712 195.343 53.8409C197.293 53.2917 199.377 52.9223 201.593 52.733C204.074 52.5057 206.072 52.2689 207.587 52.0227C209.102 51.7576 210.201 51.3883 210.882 50.9148C211.583 50.4223 211.934 49.7311 211.934 48.8409V48.6989C211.934 47.2405 211.432 46.1136 210.428 45.3182C209.424 44.5227 208.07 44.125 206.365 44.125C204.528 44.125 203.051 44.5227 201.934 45.3182C200.816 46.1136 200.106 47.2121 199.803 48.6136L186.99 48.1591C187.369 45.5076 188.345 43.1402 189.917 41.0568C191.507 38.9545 193.685 37.3068 196.451 36.1136C199.235 34.9015 202.578 34.2955 206.479 34.2955C209.263 34.2955 211.829 34.6269 214.178 35.2898C216.526 35.9337 218.572 36.8807 220.314 38.1307C222.057 39.3617 223.401 40.8769 224.348 42.6761C225.314 44.4754 225.797 46.5303 225.797 48.8409V78.5H212.729V72.4205H212.388C211.612 73.8977 210.617 75.1477 209.405 76.1705C208.212 77.1932 206.801 77.9602 205.172 78.4716C203.562 78.983 201.744 79.2386 199.718 79.2386ZM204.007 70.1477C205.504 70.1477 206.848 69.8447 208.042 69.2386C209.254 68.6326 210.22 67.7992 210.939 66.7386C211.659 65.6591 212.019 64.4091 212.019 62.9886V58.8409C211.621 59.0492 211.138 59.2386 210.57 59.4091C210.021 59.5795 209.415 59.7405 208.752 59.892C208.089 60.0436 207.407 60.1761 206.706 60.2898C206.006 60.4034 205.333 60.5076 204.689 60.6023C203.382 60.8106 202.265 61.1326 201.337 61.5682C200.428 62.0038 199.727 62.572 199.235 63.2727C198.761 63.9545 198.524 64.7689 198.524 65.7159C198.524 67.1553 199.036 68.2538 200.059 69.0114C201.1 69.7689 202.417 70.1477 204.007 70.1477ZM234.292 78.5V20.3182H248.354V43.6705H271.28V20.3182H285.314V78.5H271.28V55.1193H248.354V78.5H234.292Z" fill="#6366F0"/>
<path d="M285.935 97.5H261.935V121.5H285.935V97.5Z" fill="#6366F0"/>
<path d="M237.935 97.5H4.93481V121.5H237.935V97.5Z" fill="#6366F0"/>
</g>
<defs>
<clipPath id="clip0_73_5575">
<rect width="290" height="121" fill="white" transform="translate(0.434814 0.5)"/>
</clipPath>
</defs>
</svg>
