<svg width="146" height="61" viewBox="0 0 146 61" fill="none" xmlns="http://www.w3.org/2000/svg">
<g opacity="0.1" clip-path="url(#clip0_73_5606)">
<path d="M2.70172 39.25V10.1591H9.73297V21.8352H21.196V10.1591H28.2131V39.25H21.196V27.5596H9.73297V39.25H2.70172ZM38.7742 39.6193C37.3821 39.6193 36.1463 39.3873 35.0668 38.9233C33.9967 38.4498 33.1492 37.7396 32.5242 36.7926C31.9086 35.8361 31.6009 34.6382 31.6009 33.1988C31.6009 31.9867 31.8139 30.964 32.2401 30.1307C32.6662 29.2973 33.2533 28.6202 34.0014 28.0994C34.7496 27.5786 35.6113 27.1856 36.5867 26.9204C37.5621 26.6458 38.6037 26.4611 39.7117 26.3665C40.9522 26.2528 41.9513 26.1344 42.7088 26.0113C43.4664 25.8788 44.0157 25.6941 44.3566 25.4574C44.7069 25.2111 44.8821 24.8655 44.8821 24.4204V24.3494C44.8821 23.6202 44.6312 23.0568 44.1293 22.6591C43.6274 22.2613 42.9503 22.0625 42.098 22.0625C41.1795 22.0625 40.4408 22.2613 39.8821 22.6591C39.3234 23.0568 38.9683 23.606 38.8168 24.3068L32.4105 24.0795C32.5999 22.7538 33.0876 21.5701 33.8736 20.5284C34.6691 19.4772 35.7581 18.6534 37.1406 18.0568C38.5327 17.4507 40.2041 17.1477 42.1549 17.1477C43.5469 17.1477 44.83 17.3134 46.0043 17.6449C47.1785 17.9668 48.2013 18.4403 49.0725 19.0653C49.9437 19.6808 50.616 20.4384 51.0895 21.338C51.5725 22.2377 51.814 23.2651 51.814 24.4204V39.25H45.2799V36.2102H45.1094C44.7211 36.9488 44.224 37.5738 43.6179 38.0852C43.0213 38.5966 42.3158 38.9801 41.5014 39.2358C40.6965 39.4915 39.7874 39.6193 38.7742 39.6193ZM40.9191 35.0738C41.6672 35.0738 42.3395 34.9223 42.9361 34.6193C43.5422 34.3163 44.0251 33.8996 44.385 33.3693C44.7448 32.8295 44.9247 32.2045 44.9247 31.4943V29.4204C44.7259 29.5246 44.4844 29.6193 44.2003 29.7045C43.9257 29.7897 43.6227 29.8702 43.2912 29.946C42.9598 30.0218 42.6189 30.088 42.2685 30.1449C41.9181 30.2017 41.5819 30.2538 41.26 30.3011C40.6066 30.4053 40.0478 30.5663 39.5838 30.7841C39.1293 31.0019 38.7789 31.286 38.5327 31.6363C38.296 31.9772 38.1776 32.3844 38.1776 32.8579C38.1776 33.5776 38.4333 34.1269 38.9446 34.5057C39.4655 34.8844 40.1236 35.0738 40.9191 35.0738ZM56.061 39.25V10.1591H68.192C70.37 10.1591 72.1925 10.4668 73.6605 11.0824C75.138 11.6979 76.2455 12.5596 76.9845 13.6676C77.7325 14.7755 78.1065 16.0587 78.1065 17.517C78.1065 18.625 77.8745 19.6146 77.4105 20.4858C76.9465 21.3475 76.3075 22.0625 75.493 22.6307C74.6785 23.1988 73.7365 23.5966 72.666 23.8238V24.1079C73.8405 24.1647 74.9245 24.482 75.919 25.0596C76.923 25.6373 77.7275 26.4422 78.334 27.4744C78.94 28.4971 79.243 29.7093 79.243 31.1108C79.243 32.6733 78.845 34.0701 78.0495 35.3011C77.2545 36.5227 76.1035 37.4886 74.598 38.1988C73.0925 38.8996 71.2645 39.25 69.115 39.25H56.061ZM63.0925 33.5824H67.439C68.9635 33.5824 70.0855 33.2935 70.8055 32.7159C71.5345 32.1382 71.899 31.3333 71.899 30.3011C71.899 29.553 71.724 28.9091 71.3735 28.3693C71.023 27.8201 70.526 27.3986 69.882 27.1051C69.238 26.8021 68.4665 26.6505 67.567 26.6505H63.0925V33.5824ZM63.0925 22.1193H66.9845C67.7515 22.1193 68.433 21.9915 69.03 21.7358C69.6265 21.4801 70.0905 21.1108 70.422 20.6278C70.763 20.1449 70.933 19.5625 70.933 18.8807C70.933 17.9053 70.5875 17.1382 69.8965 16.5795C69.205 16.0208 68.2725 15.7415 67.098 15.7415H63.0925V22.1193ZM89.5695 10.1591V39.25H82.6235V10.1591H89.5695ZM100.142 39.6193C98.7495 39.6193 97.5135 39.3873 96.434 38.9233C95.364 38.4498 94.5165 37.7396 93.8915 36.7926C93.276 35.8361 92.968 34.6382 92.968 33.1988C92.968 31.9867 93.181 30.964 93.607 30.1307C94.0335 29.2973 94.6205 28.6202 95.3685 28.0994C96.1165 27.5786 96.9785 27.1856 97.954 26.9204C98.929 26.6458 99.971 26.4611 101.079 26.3665C102.32 26.2528 103.319 26.1344 104.076 26.0113C104.834 25.8788 105.383 25.6941 105.724 25.4574C106.074 25.2111 106.25 24.8655 106.25 24.4204V24.3494C106.25 23.6202 105.999 23.0568 105.497 22.6591C104.995 22.2613 104.318 22.0625 103.465 22.0625C102.547 22.0625 101.808 22.2613 101.25 22.6591C100.691 23.0568 100.336 23.606 100.184 24.3068L93.7775 24.0795C93.967 22.7538 94.455 21.5701 95.241 20.5284C96.036 19.4772 97.125 18.6534 98.508 18.0568C99.9 17.4507 101.572 17.1477 103.522 17.1477C104.914 17.1477 106.197 17.3134 107.372 17.6449C108.546 17.9668 109.569 18.4403 110.44 19.0653C111.311 19.6808 111.983 20.4384 112.457 21.338C112.94 22.2377 113.181 23.2651 113.181 24.4204V39.25H106.647V36.2102H106.477C106.089 36.9488 105.591 37.5738 104.985 38.0852C104.389 38.5966 103.683 38.9801 102.869 39.2358C102.064 39.4915 101.155 39.6193 100.142 39.6193ZM102.286 35.0738C103.035 35.0738 103.707 34.9223 104.304 34.6193C104.91 34.3163 105.393 33.8996 105.752 33.3693C106.112 32.8295 106.292 32.2045 106.292 31.4943V29.4204C106.093 29.5246 105.852 29.6193 105.568 29.7045C105.293 29.7897 104.99 29.8702 104.659 29.946C104.327 30.0218 103.986 30.088 103.636 30.1449C103.286 30.2017 102.949 30.2538 102.627 30.3011C101.974 30.4053 101.415 30.5663 100.951 30.7841C100.497 31.0019 100.146 31.286 99.9 31.6363C99.663 31.9772 99.5445 32.3844 99.5445 32.8579C99.5445 33.5776 99.8005 34.1269 100.312 34.5057C100.833 34.8844 101.491 35.0738 102.286 35.0738ZM117.429 39.25V10.1591H124.46V21.8352H135.923V10.1591H142.94V39.25H135.923V27.5596H124.46V39.25H117.429Z" fill="#6366F0"/>
<path d="M143.25 48.75H131.25V60.75H143.25V48.75Z" fill="#6366F0"/>
<path d="M119.25 48.75H2.75V60.75H119.25V48.75Z" fill="#6366F0"/>
</g>
<defs>
<clipPath id="clip0_73_5606">
<rect width="145" height="60.5" fill="white" transform="translate(0.5 0.25)"/>
</clipPath>
</defs>
</svg>
